<svg overflow="visible" width="168.695" height="59.5951" viewBox="0 0 168.695 59.5951" fill="none" xmlns="http://www.w3.org/2000/svg">
<g id="Frame 1000005621">
<path id="image 42 (Traced)" fill-rule="evenodd" clip-rule="evenodd" d="M25.0169 0.735941C24.4633 1.1381 24.0143 1.58672 24.0143 1.73765C24.0143 2.11065 25.4074 3.99806 25.6827 3.99806C26.0829 3.99806 27.864 2.57353 27.864 2.25357C27.864 1.87224 26.491 -0.0100535 26.2202 4.04457e-05C26.1097 0.00420622 25.5683 0.335386 25.0169 0.735941ZM24.4631 6.73033C23.9907 7.00543 22.0895 9.64509 22.0895 10.0258C22.0895 10.5845 25.1917 12.9093 25.675 12.7127C25.8829 12.6283 27.9782 9.91234 28.1199 9.54399C28.1704 9.41245 28.1505 9.19583 28.0759 9.06237C27.9383 8.81675 24.9989 6.55745 24.8287 6.56642C24.7779 6.56915 24.6133 6.64285 24.4631 6.73033ZM25.726 14.9194C25.347 15.1313 23.0219 19.8088 23.083 20.2366C23.1207 20.5014 23.6701 20.859 25.458 21.7827C27.6095 22.8943 27.7874 23.0204 27.831 23.4651C27.8698 23.8619 27.4994 24.4741 25.7061 26.9766C24.5116 28.6438 23.4146 30.1399 23.2681 30.3013C22.7354 30.8894 22.3272 30.6779 20.4415 28.8371C19.0761 27.5043 18.5376 27.0781 18.2144 27.0747C17.8748 27.071 17.3927 27.4831 15.8485 29.0969C14.7816 30.2115 13.9088 31.2358 13.9088 31.3731C13.9088 31.7335 17.9504 35.722 18.3153 35.722C18.4905 35.722 19.3764 34.9416 20.4201 33.8675C22.6419 31.5816 22.7179 31.5681 23.9784 33.2386C25.9512 35.8533 27.7269 38.3215 27.8862 38.6708C28.0042 38.9294 28.0063 39.1397 27.8927 39.3469C27.8023 39.5123 26.712 40.1756 25.4702 40.8211C23.4624 41.8648 23.2123 42.0401 23.2123 42.4041C23.2123 42.6292 23.7667 43.8874 24.4441 45.2001C25.3795 47.0126 25.7637 47.6088 26.0412 47.6783C26.5274 47.8002 31.2045 45.403 31.4285 44.917C31.5557 44.6411 31.3716 44.1585 30.4312 42.3037C29.1014 39.6805 29.0788 39.4173 30.1495 39.0217C31.8183 38.4048 37.2313 36.6834 37.5021 36.6834C38.0038 36.6834 38.2339 37.305 38.6137 39.6882C38.8139 40.9443 39.0685 42.0958 39.1793 42.2474C39.3687 42.506 39.5527 42.495 42.2159 42.0628C44.6432 41.6692 45.0831 41.554 45.2747 41.2619C45.47 40.9642 45.4407 40.5776 45.0454 38.2302C44.7764 36.6318 44.4978 35.445 44.3592 35.3066C44.1552 35.1028 43.8103 35.1244 41.603 35.4803C39.0114 35.8981 38.6062 35.877 38.3895 35.3128C38.3349 35.171 38.2903 33.2634 38.2903 31.074C38.2903 27.6685 38.3267 27.0566 38.5423 26.8411C38.8692 26.5147 39.06 26.52 41.7905 26.9307C43.7608 27.2269 44.1198 27.2441 44.3126 27.0516C44.447 26.9174 44.7065 25.7082 44.9582 24.0443C45.3671 21.3403 45.3706 21.2537 45.0828 20.9768C44.866 20.7682 44.0617 20.5865 42.0781 20.2978C39.5502 19.9299 39.3517 19.9214 39.1021 20.1707C38.9243 20.3484 38.7411 21.0781 38.5545 22.352C38.1245 25.2887 38.1197 25.307 37.7154 25.5715C37.4209 25.7642 37.2265 25.7815 36.8127 25.6522C30.7666 23.7616 29.6081 23.3426 29.3537 22.9547C29.095 22.5604 29.1163 22.4955 30.2472 20.23C31.0176 18.6864 31.3724 17.8049 31.3066 17.5977C31.2426 17.3962 30.4111 16.8876 28.9505 16.1567C26.1729 14.7669 26.0698 14.7273 25.726 14.9194ZM56.1657 16.3329C55.4044 17.446 55.4016 17.4543 55.7075 17.7925C56.2059 18.3439 57.6415 19.2315 57.8801 19.136C58.1396 19.0322 59.4637 17.1358 59.4637 16.8679C59.4637 16.6378 57.4858 15.2136 57.1663 15.2136C57.0371 15.2136 56.5869 15.7174 56.1657 16.3329ZM48.318 16.2289C47.9996 16.7143 47.1126 19.3352 47.1126 19.7904C47.1126 20.2697 47.2642 20.3599 49.2246 21.0478C50.5789 21.5228 51.0025 21.6122 51.256 21.4767C51.4724 21.3612 51.7627 20.7464 52.1515 19.5811C52.8185 17.5819 52.8403 17.3684 52.4016 17.1339C51.9287 16.8812 49.0156 15.8545 48.7713 15.8545C48.6571 15.8545 48.4531 16.0231 48.318 16.2289ZM1.09364 25.7548C-0.127035 26.1427 -0.207558 26.3393 0.276222 27.7494C0.599437 28.6912 0.744924 28.9224 1.04055 28.9644C1.53395 29.0342 3.43379 28.3893 3.53869 28.1161C3.58489 27.996 3.46234 27.3689 3.26616 26.7227C2.93284 25.6255 2.87798 25.5457 2.43398 25.514C2.17268 25.4952 1.5694 25.6037 1.09364 25.7548ZM7.45192 28.4419C6.60049 29.0201 5.85637 29.6431 5.79815 29.8264C5.65763 30.2686 7.76423 33.3751 8.25426 33.448C8.54203 33.4908 10.6315 32.2065 11.5429 31.4263C11.9689 31.0617 11.8869 30.6715 11.1558 29.5847C10.0818 27.9883 9.56958 27.3905 9.2754 27.3905C9.12381 27.3905 8.30335 27.8636 7.45192 28.4419ZM46.8885 42.8141C46.6264 43.0107 46.5733 43.3195 46.5072 45.0337C46.4467 46.6027 46.4772 47.0623 46.6513 47.2008C46.7727 47.2976 47.7473 47.426 48.817 47.486C51.3134 47.6264 51.2831 47.6509 51.2831 45.4972C51.2831 44.6296 51.3224 43.8174 51.3704 43.6926C51.4183 43.5676 51.328 43.3143 51.1699 43.1294C50.9201 42.838 50.6378 42.7797 49.0374 42.6896C47.5678 42.607 47.1309 42.6323 46.8885 42.8141ZM22.809 50.0316C21.9255 50.3127 21.1134 50.6009 21.0045 50.6722C20.7061 50.8674 20.7629 51.5018 21.214 53.0177C21.9127 55.365 21.8574 55.3265 23.7564 54.7821C25.9987 54.1391 26.26 54.0074 26.26 53.5195C26.26 52.807 25.3304 49.9214 25.0303 49.7022C24.6697 49.4388 24.6758 49.4379 22.809 50.0316ZM51.5176 50.5323C51.1554 51.3985 50.9005 52.4741 50.9977 52.7271C51.1166 53.0363 53.4827 53.777 53.69 53.57C53.7755 53.4846 54.0207 52.9001 54.2349 52.2711C54.7057 50.8884 54.6572 50.7954 53.2169 50.3218C51.8626 49.8764 51.7882 49.8857 51.5176 50.5323ZM16.8935 56.6442C16.7161 57.1061 16.7883 59.2028 16.9886 59.4029C17.1022 59.5163 17.648 59.5951 18.32 59.5951C18.9919 59.5951 19.5378 59.5163 19.6513 59.4029C19.7697 59.2846 19.8438 58.7053 19.8438 57.8979C19.8438 56.3627 19.8751 56.3907 18.1636 56.3907C17.2422 56.3907 16.97 56.445 16.8935 56.6442Z" fill="white"/>
<g id="Blockchain&#226;&#128;&#168;Capital">
<path d="M72.6325 24.8776V9.90903H78.7872C80.0167 9.90903 80.9889 10.2593 81.7037 10.9598C82.4185 11.6604 82.776 12.5968 82.776 13.7691C82.776 14.5126 82.6401 15.1059 82.3685 15.5491C82.1112 15.9923 81.7895 16.3211 81.4035 16.5355C81.0318 16.75 80.6815 16.8858 80.3527 16.943V17.0717C80.6243 17.086 80.9245 17.1646 81.2534 17.3076C81.5965 17.4362 81.9182 17.6364 82.2184 17.908C82.5329 18.1796 82.7903 18.5299 82.9904 18.9588C83.1906 19.3877 83.2906 19.9167 83.2906 20.5457C83.2906 21.3607 83.1191 22.0969 82.776 22.7546C82.4471 23.4122 81.9896 23.9341 81.4035 24.3201C80.8316 24.6918 80.174 24.8776 79.4305 24.8776H72.6325ZM74.4339 17.9295V23.2907H78.873C79.3876 23.2907 79.8308 23.2049 80.2026 23.0334C80.5743 22.8475 80.8602 22.583 81.0604 22.2399C81.2605 21.8968 81.3606 21.475 81.3606 20.9746V20.2455C81.3606 19.7451 81.2605 19.3234 81.0604 18.9803C80.8602 18.6371 80.5743 18.3798 80.2026 18.2082C79.8308 18.0224 79.3876 17.9295 78.873 17.9295H74.4339ZM74.4339 11.496V16.3854H78.5727C79.0445 16.3854 79.4448 16.3068 79.7737 16.1495C80.1168 15.978 80.3813 15.7421 80.5671 15.4418C80.753 15.1273 80.8459 14.7484 80.8459 14.3053V13.5761C80.8459 13.1329 80.753 12.7612 80.5671 12.461C80.3813 12.1465 80.1168 11.9106 79.7737 11.7533C79.4448 11.5817 79.0445 11.496 78.5727 11.496H74.4339Z" fill="white"/>
<path d="M89.1734 24.8776H87.6508C87.0647 24.8776 86.6143 24.7132 86.2998 24.3844C85.9853 24.0413 85.828 23.6124 85.828 23.0977V9.00834H87.5436V23.3765H89.1734V24.8776Z" fill="white"/>
<path d="M95.2094 25.135C94.2229 25.135 93.3508 24.8991 92.5931 24.4273C91.8497 23.9412 91.2635 23.2693 90.8346 22.4115C90.42 21.5394 90.2127 20.5172 90.2127 19.3448C90.2127 18.1725 90.42 17.1574 90.8346 16.2996C91.2635 15.4275 91.8497 14.7556 92.5931 14.2838C93.3508 13.7977 94.2229 13.5547 95.2094 13.5547C96.1958 13.5547 97.0608 13.7977 97.8042 14.2838C98.5619 14.7556 99.1481 15.4275 99.5627 16.2996C99.9916 17.1574 100.206 18.1725 100.206 19.3448C100.206 20.5172 99.9916 21.5394 99.5627 22.4115C99.1481 23.2693 98.5619 23.9412 97.8042 24.4273C97.0608 24.8991 96.1958 25.135 95.2094 25.135ZM95.2094 23.6124C96.1387 23.6124 96.8964 23.3265 97.4825 22.7546C98.0687 22.1827 98.3618 21.3106 98.3618 20.1383V18.5514C98.3618 17.379 98.0687 16.5069 97.4825 15.9351C96.8964 15.3632 96.1387 15.0773 95.2094 15.0773C94.2944 15.0773 93.5367 15.3632 92.9362 15.9351C92.35 16.5069 92.057 17.379 92.057 18.5514V20.1383C92.057 21.3106 92.35 22.1827 92.9362 22.7546C93.5367 23.3265 94.2944 23.6124 95.2094 23.6124Z" fill="white"/>
<path d="M106.502 25.135C104.943 25.135 103.728 24.6132 102.856 23.5695C101.998 22.5258 101.569 21.1176 101.569 19.3448C101.569 17.572 101.998 16.1638 102.856 15.1202C103.728 14.0765 104.943 13.5547 106.502 13.5547C107.603 13.5547 108.489 13.7977 109.161 14.2838C109.833 14.7699 110.326 15.3918 110.641 16.1495L109.204 16.8787C109.004 16.3068 108.668 15.8636 108.196 15.5491C107.738 15.2345 107.174 15.0773 106.502 15.0773C105.487 15.0773 104.715 15.3918 104.186 16.0209C103.671 16.6356 103.414 17.4291 103.414 18.4012V20.2884C103.414 21.2463 103.671 22.0398 104.186 22.6688C104.715 23.2979 105.487 23.6124 106.502 23.6124C107.202 23.6124 107.803 23.448 108.303 23.1191C108.803 22.7903 109.204 22.3114 109.504 21.6823L110.748 22.5187C110.39 23.305 109.854 23.9412 109.139 24.4273C108.439 24.8991 107.56 25.135 106.502 25.135Z" fill="white"/>
<path d="M112.526 24.8776V9.00834H114.242V19.066H114.328L116.022 17.1789L119.153 13.812H121.233L117.137 18.1868L121.64 24.8776H119.56L115.893 19.2376L114.242 20.9318V24.8776H112.526Z" fill="white"/>
<path d="M126.953 25.135C125.395 25.135 124.18 24.6132 123.308 23.5695C122.45 22.5258 122.021 21.1176 122.021 19.3448C122.021 17.572 122.45 16.1638 123.308 15.1202C124.18 14.0765 125.395 13.5547 126.953 13.5547C128.054 13.5547 128.94 13.7977 129.612 14.2838C130.284 14.7699 130.778 15.3918 131.092 16.1495L129.655 16.8787C129.455 16.3068 129.119 15.8636 128.647 15.5491C128.19 15.2345 127.625 15.0773 126.953 15.0773C125.938 15.0773 125.166 15.3918 124.637 16.0209C124.122 16.6356 123.865 17.4291 123.865 18.4012V20.2884C123.865 21.2463 124.122 22.0398 124.637 22.6688C125.166 23.2979 125.938 23.6124 126.953 23.6124C127.654 23.6124 128.254 23.448 128.755 23.1191C129.255 22.7903 129.655 22.3114 129.955 21.6823L131.199 22.5187C130.842 23.305 130.306 23.9412 129.591 24.4273C128.89 24.8991 128.011 25.135 126.953 25.135Z" fill="white"/>
<path d="M132.978 24.8776V9.00834H134.693V15.6134H134.779C135.051 14.9843 135.43 14.484 135.916 14.1122C136.416 13.7405 137.081 13.5547 137.91 13.5547C139.054 13.5547 139.954 13.9264 140.612 14.6698C141.284 15.3989 141.62 16.4355 141.62 17.7793V24.8776H139.904V18.0796C139.904 17.0931 139.69 16.3497 139.261 15.8493C138.846 15.3489 138.225 15.0987 137.395 15.0987C136.938 15.0987 136.502 15.1773 136.087 15.3346C135.673 15.4776 135.337 15.7063 135.079 16.0209C134.822 16.3354 134.693 16.7285 134.693 17.2003V24.8776H132.978Z" fill="white"/>
<path d="M153.53 24.8776H152.565C152.107 24.8776 151.735 24.7847 151.45 24.5989C151.164 24.3987 150.956 24.1271 150.828 23.7839C150.699 23.4408 150.635 23.0477 150.635 22.6045V22.4544L151.299 23.0763H150.549C150.32 23.7482 149.92 24.2629 149.348 24.6203C148.79 24.9634 148.126 25.135 147.354 25.135C146.181 25.135 145.266 24.8347 144.609 24.2343C143.965 23.6338 143.644 22.8189 143.644 21.7896C143.644 21.089 143.815 20.5029 144.158 20.0311C144.501 19.545 145.016 19.1804 145.702 18.9374C146.403 18.68 147.289 18.5514 148.361 18.5514H150.549V17.4577C150.549 16.6714 150.334 16.0709 149.906 15.6563C149.477 15.2417 148.819 15.0344 147.933 15.0344C147.275 15.0344 146.717 15.1845 146.26 15.4847C145.802 15.785 145.424 16.1853 145.123 16.6856L144.094 15.7206C144.394 15.1345 144.873 14.6269 145.531 14.198C146.188 13.7691 147.018 13.5547 148.018 13.5547C149.348 13.5547 150.384 13.8835 151.128 14.5411C151.886 15.1988 152.264 16.1138 152.264 17.2861V23.3765H153.53V24.8776ZM150.549 19.8381H148.276C147.304 19.8381 146.589 19.981 146.131 20.267C145.674 20.5529 145.445 20.9675 145.445 21.5108V21.9611C145.445 22.5044 145.645 22.9261 146.045 23.2264C146.446 23.5266 146.975 23.6767 147.632 23.6767C148.204 23.6767 148.705 23.5909 149.133 23.4194C149.577 23.2335 149.92 22.9905 150.163 22.6902C150.42 22.3757 150.549 22.0326 150.549 21.6609V19.8381Z" fill="white"/>
<path d="M156.193 11.2172C155.835 11.2172 155.571 11.1314 155.399 10.9598C155.228 10.774 155.142 10.5381 155.142 10.2521V9.97336C155.142 9.68743 155.228 9.45868 155.399 9.28712C155.571 9.10126 155.835 9.00834 156.193 9.00834C156.564 9.00834 156.829 9.10126 156.986 9.28712C157.158 9.45868 157.244 9.68743 157.244 9.97336V10.2521C157.244 10.5381 157.158 10.774 156.986 10.9598C156.829 11.1314 156.564 11.2172 156.193 11.2172ZM155.335 24.8776V13.812H157.051V24.8776H155.335Z" fill="white"/>
<path d="M161.768 24.8776H160.053V13.812H161.768V15.6134H161.854C162.126 14.9843 162.505 14.484 162.991 14.1122C163.491 13.7405 164.156 13.5547 164.985 13.5547C166.129 13.5547 167.03 13.9264 167.687 14.6698C168.359 15.3989 168.695 16.4355 168.695 17.7793V24.8776H166.98V18.0796C166.98 17.0931 166.765 16.3497 166.336 15.8493C165.922 15.3489 165.3 15.0987 164.471 15.0987C164.013 15.0987 163.577 15.1773 163.162 15.3346C162.748 15.4776 162.412 15.7063 162.154 16.0209C161.897 16.3354 161.768 16.7285 161.768 17.2003V24.8776Z" fill="white"/>
<path d="M77.9079 46.5551C76.6498 46.5551 75.5704 46.2691 74.6697 45.6973C73.7691 45.1111 73.0757 44.2533 72.5896 43.1239C72.1178 41.9801 71.8819 40.5719 71.8819 38.8992C71.8819 37.2265 72.1178 35.8111 72.5896 34.6531C73.0757 33.4808 73.7691 32.5944 74.6697 31.9939C75.5704 31.3792 76.6498 31.0718 77.9079 31.0718C79.1518 31.0718 80.2026 31.3577 81.0604 31.9296C81.9182 32.5014 82.583 33.3092 83.0547 34.3529L81.5965 35.2321C81.2963 34.4601 80.8388 33.8453 80.224 33.3878C79.6092 32.916 78.8372 32.6801 77.9079 32.6801C76.6212 32.6801 75.6133 33.1519 74.8842 34.0955C74.1694 35.0248 73.8119 36.2543 73.8119 37.7841V40.0143C73.8119 41.5441 74.1694 42.7522 74.8842 43.6385C75.6133 44.5106 76.6212 44.9467 77.9079 44.9467C78.8658 44.9467 79.6664 44.7036 80.3098 44.2176C80.9531 43.7172 81.4249 43.0595 81.7252 42.2446L83.162 43.1453C82.6902 44.189 82.0039 45.0182 81.1032 45.6329C80.2169 46.2477 79.1518 46.5551 77.9079 46.5551Z" fill="white"/>
<path d="M94.1438 46.2977H93.1788C92.7213 46.2977 92.3496 46.2048 92.0637 46.0189C91.7777 45.8188 91.5704 45.5471 91.4417 45.204C91.3131 44.8609 91.2487 44.4678 91.2487 44.0246V43.8744L91.9135 44.4963H91.163C90.9342 45.1683 90.5339 45.683 89.962 46.0404C89.4045 46.3835 88.7397 46.5551 87.9677 46.5551C86.7953 46.5551 85.8803 46.2548 85.2227 45.6544C84.5793 45.0539 84.2577 44.239 84.2577 43.2096C84.2577 42.5091 84.4292 41.9229 84.7724 41.4512C85.1155 40.9651 85.6302 40.6005 86.3164 40.3575C87.0169 40.1001 87.9033 39.9714 88.9756 39.9714H91.163V38.8778C91.163 38.0914 90.9485 37.491 90.5196 37.0764C90.0907 36.6618 89.4331 36.4545 88.5467 36.4545C87.889 36.4545 87.3315 36.6046 86.874 36.9048C86.4165 37.205 86.0376 37.6053 85.7374 38.1057L84.708 37.1407C85.0082 36.5545 85.4872 36.047 86.1448 35.6181C86.8025 35.1892 87.6317 34.9748 88.6325 34.9748C89.962 34.9748 90.9986 35.3036 91.742 35.9612C92.4997 36.6189 92.8786 37.5339 92.8786 38.7062V44.7966H94.1438V46.2977ZM91.163 41.2581H88.8898C87.9176 41.2581 87.2028 41.4011 86.7453 41.687C86.2878 41.973 86.0591 42.3876 86.0591 42.9309V43.3812C86.0591 43.9245 86.2592 44.3462 86.6595 44.6465C87.0598 44.9467 87.5888 45.0968 88.2464 45.0968C88.8183 45.0968 89.3187 45.011 89.7476 44.8395C90.1908 44.6536 90.5339 44.4106 90.777 44.1103C91.0343 43.7958 91.163 43.4527 91.163 43.081V41.2581Z" fill="white"/>
<path d="M95.9491 50.5867V35.2321H97.6647V37.0335H97.7504C98.0364 36.3329 98.4581 35.8183 99.0157 35.4894C99.5733 35.1463 100.231 34.9748 100.989 34.9748C101.918 34.9748 102.719 35.2107 103.39 35.6824C104.062 36.1542 104.577 36.8262 104.935 37.6983C105.306 38.5561 105.492 39.5783 105.492 40.7649C105.492 41.9372 105.306 42.9595 104.935 43.8315C104.577 44.7036 104.062 45.3756 103.39 45.8474C102.719 46.3192 101.918 46.5551 100.989 46.5551C100.231 46.5551 99.5804 46.3835 99.0371 46.0404C98.5082 45.6973 98.0793 45.1826 97.7504 44.4963H97.6647V50.5867H95.9491ZM100.517 45.011C101.489 45.011 102.254 44.7108 102.811 44.1103C103.369 43.4956 103.648 42.695 103.648 41.7085V39.8213C103.648 38.8349 103.369 38.0414 102.811 37.4409C102.254 36.8262 101.489 36.5188 100.517 36.5188C100.002 36.5188 99.5232 36.6117 99.08 36.7976C98.6511 36.9834 98.308 37.2336 98.0507 37.5482C97.7933 37.8627 97.6647 38.2273 97.6647 38.6419V42.7593C97.6647 43.2311 97.7933 43.6385 98.0507 43.9817C98.308 44.3105 98.6511 44.5678 99.08 44.7537C99.5232 44.9252 100.002 45.011 100.517 45.011Z" fill="white"/>
<path d="M108.603 32.6373C108.246 32.6373 107.981 32.5515 107.81 32.3799C107.638 32.1941 107.552 31.9582 107.552 31.6722V31.3934C107.552 31.1075 107.638 30.8788 107.81 30.7072C107.981 30.5213 108.246 30.4284 108.603 30.4284C108.975 30.4284 109.239 30.5213 109.397 30.7072C109.568 30.8788 109.654 31.1075 109.654 31.3934V31.6722C109.654 31.9582 109.568 32.1941 109.397 32.3799C109.239 32.5515 108.975 32.6373 108.603 32.6373ZM107.745 46.2977V35.2321H109.461V46.2977H107.745Z" fill="white"/>
<path d="M117.053 46.2977H114.908C114.322 46.2977 113.872 46.1262 113.557 45.783C113.243 45.4399 113.085 45.0039 113.085 44.4749V36.7333H111.262V35.2321H112.292C112.664 35.2321 112.914 35.1606 113.042 35.0177C113.185 34.8604 113.257 34.5959 113.257 34.2242V32.1655H114.801V35.2321H117.224V36.7333H114.801V44.7966H117.053V46.2977Z" fill="white"/>
<path d="M128.345 46.2977H127.38C126.923 46.2977 126.551 46.2048 126.265 46.0189C125.979 45.8188 125.772 45.5471 125.643 45.204C125.515 44.8609 125.45 44.4678 125.45 44.0246V43.8744L126.115 44.4963H125.364C125.136 45.1683 124.735 45.683 124.163 46.0404C123.606 46.3835 122.941 46.5551 122.169 46.5551C120.997 46.5551 120.082 46.2548 119.424 45.6544C118.781 45.0539 118.459 44.239 118.459 43.2096C118.459 42.5091 118.631 41.9229 118.974 41.4512C119.317 40.9651 119.832 40.6005 120.518 40.3575C121.218 40.1001 122.105 39.9714 123.177 39.9714H125.364V38.8778C125.364 38.0914 125.15 37.491 124.721 37.0764C124.292 36.6618 123.634 36.4545 122.748 36.4545C122.09 36.4545 121.533 36.6046 121.075 36.9048C120.618 37.205 120.239 37.6053 119.939 38.1057L118.909 37.1407C119.21 36.5545 119.689 36.047 120.346 35.6181C121.004 35.1892 121.833 34.9748 122.834 34.9748C124.163 34.9748 125.2 35.3036 125.943 35.9612C126.701 36.6189 127.08 37.5339 127.08 38.7062V44.7966H128.345V46.2977ZM125.364 41.2581H123.091C122.119 41.2581 121.404 41.4011 120.947 41.687C120.489 41.973 120.26 42.3876 120.26 42.9309V43.3812C120.26 43.9245 120.461 44.3462 120.861 44.6465C121.261 44.9467 121.79 45.0968 122.448 45.0968C123.02 45.0968 123.52 45.011 123.949 44.8395C124.392 44.6536 124.735 44.4106 124.978 44.1103C125.236 43.7958 125.364 43.4527 125.364 43.081V41.2581Z" fill="white"/>
<path d="M133.496 46.2977H131.973C131.387 46.2977 130.937 46.1333 130.622 45.8045C130.308 45.4614 130.15 45.0325 130.15 44.5178V30.4284H131.866V44.7966H133.496V46.2977Z" fill="white"/>
</g>
</g>
</svg>
